<svg width="78" height="56" viewBox="0 0 78 56" fill="none" xmlns="http://www.w3.org/2000/svg">
<path opacity="0.1284" d="M28.4946 56C43.9586 56 56.4946 43.464 56.4946 28C56.4946 12.536 43.9586 0 28.4946 0C13.0307 0 0.494629 12.536 0.494629 28C0.494629 43.464 13.0307 56 28.4946 56Z" fill="white"/>
<path fill-rule="evenodd" clip-rule="evenodd" d="M58.3955 32.4993L62.1949 34.1725C63.5625 34.7751 64.4462 36.2119 64.4462 37.8335V47.4003C64.4462 48.8339 63.3869 50 62.0848 50H59.6444C59.0139 50 58.5029 49.4374 58.5029 48.7433C58.5029 48.0494 59.0139 47.4869 59.6444 47.4869H62.0848C62.1282 47.4869 62.1634 47.4482 62.1634 47.4003V37.8335C62.1634 37.2455 61.8428 36.7245 61.3469 36.5061L57.5477 34.8331C56.6461 34.4362 56.0634 33.4887 56.0634 32.4195V31.8769C55.2966 32.2675 54.4438 32.4869 53.5449 32.4869C52.6459 32.4869 51.7932 32.2675 51.0263 31.8769V32.4195C51.0263 33.4885 50.4436 34.436 49.542 34.8331L45.7426 36.5061C45.2467 36.7245 44.9263 37.2455 44.9263 37.8335V47.4003C44.9263 47.4482 44.9615 47.4869 45.005 47.4869H54.7649C55.3953 47.4869 55.9063 48.0494 55.9063 48.7433C55.9063 49.4374 55.3953 50 54.7649 50H45.0051C43.703 50 42.6436 48.8339 42.6436 47.4003V37.8333C42.6436 36.2117 43.5272 34.7749 44.8948 34.1725L48.6942 32.4995C48.7241 32.4864 48.7435 32.4547 48.7435 32.4193V29.8524C47.9785 28.7408 47.5236 27.3568 47.5236 25.8577V21.8282C47.5236 18.9136 50.2247 16.5425 53.5451 16.5425C56.8651 16.5425 59.5665 18.9136 59.5665 21.8282V25.8577C59.5665 27.357 59.1116 28.741 58.3464 29.8522V32.4191C58.3464 32.4547 58.3656 32.4862 58.3955 32.4993ZM53.5454 29.9736C55.6069 29.9736 57.284 28.1271 57.284 25.8578V21.8286C57.284 20.3256 55.5719 19.056 53.5456 19.056C51.5191 19.056 49.8068 20.3256 49.8068 21.8286V25.8578C49.8068 28.1271 51.4839 29.9736 53.5454 29.9736Z" fill="#FF7B14"/>
<mask id="path-3-outside-1_238_276" maskUnits="userSpaceOnUse" x="9.99463" y="6.5" width="68" height="42" fill="black">
<rect fill="white" x="9.99463" y="6.5" width="68" height="42"/>
<path fill-rule="evenodd" clip-rule="evenodd" d="M39.4787 39.4545H19.5013V13.1296C19.5013 10.9118 21.3062 9.11082 23.5219 9.11082H64.4738C66.6938 9.11082 68.4945 10.9138 68.4945 13.1296V39.4546H67.2472V41.063H75.3714C75.2108 42.7899 74.1929 44.2669 72.7559 45.0879C72.8565 45.5144 72.953 45.9505 73.0501 46.3886L73.1201 46.7047C75.4097 45.6023 77.0053 43.2788 77.0053 40.5721V40.259C77.0053 39.814 76.6453 39.4546 76.199 39.4546H70.1028V13.1291C70.1028 10.0248 67.5781 7.5 64.4738 7.5L23.5244 7.50047C20.42 7.50047 17.8953 10.0252 17.8953 13.1296V39.4545H11.7986C11.3541 39.4545 10.9946 39.8145 10.9946 40.2566V40.5697C10.9946 44.3344 14.0569 47.3986 17.8211 47.3986H39.4787V45.7902H17.8189C15.1081 45.7902 12.8734 43.71 12.6239 41.0629H39.4787V39.4545ZM72.371 44.9701H67.2563V46.9058H72.371V44.9701Z"/>
</mask>
<path fill-rule="evenodd" clip-rule="evenodd" d="M39.4787 39.4545H19.5013V13.1296C19.5013 10.9118 21.3062 9.11082 23.5219 9.11082H64.4738C66.6938 9.11082 68.4945 10.9138 68.4945 13.1296V39.4546H67.2472V41.063H75.3714C75.2108 42.7899 74.1929 44.2669 72.7559 45.0879C72.8565 45.5144 72.953 45.9505 73.0501 46.3886L73.1201 46.7047C75.4097 45.6023 77.0053 43.2788 77.0053 40.5721V40.259C77.0053 39.814 76.6453 39.4546 76.199 39.4546H70.1028V13.1291C70.1028 10.0248 67.5781 7.5 64.4738 7.5L23.5244 7.50047C20.42 7.50047 17.8953 10.0252 17.8953 13.1296V39.4545H11.7986C11.3541 39.4545 10.9946 39.8145 10.9946 40.2566V40.5697C10.9946 44.3344 14.0569 47.3986 17.8211 47.3986H39.4787V45.7902H17.8189C15.1081 45.7902 12.8734 43.71 12.6239 41.0629H39.4787V39.4545ZM72.371 44.9701H67.2563V46.9058H72.371V44.9701Z" fill="white"/>
<path d="M19.5013 39.4545H19.0013V39.9545H19.5013V39.4545ZM39.4787 39.4545H39.9787V38.9545H39.4787V39.4545ZM68.4945 39.4546V39.9546H68.9945V39.4546H68.4945ZM67.2472 39.4546V38.9546H66.7472V39.4546H67.2472ZM67.2472 41.063H66.7472V41.563H67.2472V41.063ZM75.3714 41.063L75.8692 41.1093L75.9201 40.563H75.3714V41.063ZM72.7559 45.0879L72.5079 44.6537L72.1836 44.839L72.2693 45.2026L72.7559 45.0879ZM73.0501 46.3886L72.5619 46.4967L72.5619 46.4968L73.0501 46.3886ZM73.1201 46.7047L72.632 46.813L72.7685 47.429L73.3371 47.1552L73.1201 46.7047ZM70.1028 39.4546H69.6028V39.9546H70.1028V39.4546ZM64.4738 7.5V7H64.4738L64.4738 7.5ZM23.5244 7.50047V8.00047H23.5244L23.5244 7.50047ZM17.8953 39.4545V39.9545H18.3953V39.4545H17.8953ZM39.4787 47.3986V47.8986H39.9787V47.3986H39.4787ZM39.4787 45.7902H39.9787V45.2902H39.4787V45.7902ZM12.6239 41.0629V40.5629H12.0746L12.1261 41.1098L12.6239 41.0629ZM39.4787 41.0629V41.5629H39.9787V41.0629H39.4787ZM67.2563 44.9701V44.4701H66.7563V44.9701H67.2563ZM72.371 44.9701H72.871V44.4701H72.371V44.9701ZM67.2563 46.9058H66.7563V47.4058H67.2563V46.9058ZM72.371 46.9058V47.4058H72.871V46.9058H72.371ZM19.5013 39.9545H39.4787V38.9545H19.5013V39.9545ZM19.0013 13.1296V39.4545H20.0013V13.1296H19.0013ZM23.5219 8.61082C21.0305 8.61082 19.0013 10.6352 19.0013 13.1296H20.0013C20.0013 11.1885 21.5818 9.61082 23.5219 9.61082V8.61082ZM64.4738 8.61082H23.5219V9.61082H64.4738V8.61082ZM68.9945 13.1296C68.9945 10.6377 66.97 8.61082 64.4738 8.61082V9.61082C66.4176 9.61082 67.9945 11.1899 67.9945 13.1296H68.9945ZM68.9945 39.4546V13.1296H67.9945V39.4546H68.9945ZM67.2472 39.9546H68.4945V38.9546H67.2472V39.9546ZM67.7472 41.063V39.4546H66.7472V41.063H67.7472ZM75.3714 40.563H67.2472V41.563H75.3714V40.563ZM73.004 45.522C74.5749 44.6245 75.6928 43.0069 75.8692 41.1093L74.8735 41.0167C74.7288 42.5729 73.8108 43.9093 72.5079 44.6537L73.004 45.522ZM73.5382 46.2805C73.4413 45.843 73.3441 45.4036 73.2426 44.9732L72.2693 45.2026C72.3689 45.6253 72.4647 46.058 72.5619 46.4967L73.5382 46.2805ZM73.6083 46.5965L73.5382 46.2804L72.5619 46.4968L72.632 46.813L73.6083 46.5965ZM76.5053 40.5721C76.5053 43.0758 75.0298 45.2303 72.9032 46.2543L73.3371 47.1552C75.7896 45.9743 77.5053 43.4818 77.5053 40.5721H76.5053ZM76.5053 40.259V40.5721H77.5053V40.259H76.5053ZM76.199 39.9546C76.3702 39.9546 76.5053 40.0911 76.5053 40.259H77.5053C77.5053 39.5369 76.9205 38.9546 76.199 38.9546V39.9546ZM70.1028 39.9546H76.199V38.9546H70.1028V39.9546ZM69.6028 13.1291V39.4546H70.6028V13.1291H69.6028ZM64.4738 8C67.302 8 69.6028 10.3009 69.6028 13.1291H70.6028C70.6028 9.74861 67.8542 7 64.4738 7V8ZM23.5244 8.00047L64.4738 8L64.4738 7L23.5244 7.00047L23.5244 8.00047ZM18.3953 13.1296C18.3953 10.3014 20.6962 8.00047 23.5244 8.00047V7.00047C20.1439 7.00047 17.3953 9.74908 17.3953 13.1296H18.3953ZM18.3953 39.4545V13.1296H17.3953V39.4545H18.3953ZM11.7986 39.9545H17.8953V38.9545H11.7986V39.9545ZM11.4946 40.2566C11.4946 40.0912 11.6297 39.9545 11.7986 39.9545V38.9545C11.0785 38.9545 10.4946 39.5377 10.4946 40.2566H11.4946ZM11.4946 40.5697V40.2566H10.4946V40.5697H11.4946ZM17.8211 46.8986C14.3332 46.8986 11.4946 44.0585 11.4946 40.5697H10.4946C10.4946 44.6104 13.7805 47.8986 17.8211 47.8986V46.8986ZM39.4787 46.8986H17.8211V47.8986H39.4787V46.8986ZM38.9787 45.7902V47.3986H39.9787V45.7902H38.9787ZM17.8189 46.2902H39.4787V45.2902H17.8189V46.2902ZM12.1261 41.1098C12.3995 44.0108 14.8471 46.2902 17.8189 46.2902V45.2902C15.369 45.2902 13.3473 43.4092 13.1217 41.016L12.1261 41.1098ZM39.4787 40.5629H12.6239V41.5629H39.4787V40.5629ZM38.9787 39.4545V41.0629H39.9787V39.4545H38.9787ZM67.2563 45.4701H72.371V44.4701H67.2563V45.4701ZM67.7563 46.9058V44.9701H66.7563V46.9058H67.7563ZM72.371 46.4058H67.2563V47.4058H72.371V46.4058ZM71.871 44.9701V46.9058H72.871V44.9701H71.871Z" fill="white" mask="url(#path-3-outside-1_238_276)"/>
</svg>
