<?xml version="1.0" encoding="UTF-8"?>
<svg xmlns="http://www.w3.org/2000/svg" width="85" height="62" viewBox="0 0 85 62" fill="none">
  <g clip-path="url(#clip0_5961_68189)">
    <path fill-rule="evenodd" clip-rule="evenodd" d="M34.3425 42.5092C34.5397 42.0305 34.7868 41.6046 35.0398 41.1788H11.696V8.07847C11.696 5.28996 13.9654 3.0254 16.7515 3.0254H68.2432C71.0346 3.0254 73.2987 5.29239 73.2987 8.07847V37.7912C74.0382 38.3845 74.7141 39.0604 75.3211 39.8052V8.07787C75.3211 4.17456 72.1465 1 68.2432 1L16.7546 1.00059C12.8512 1.00059 9.67668 4.17515 9.67668 8.07846V41.1787H2.01086C1.45197 41.1787 1 41.6313 1 42.1872V42.581C1 47.3146 4.8504 51.1675 9.58342 51.1675H32.018L32.0913 50.8276C32.2126 50.2651 32.3337 49.7033 32.4623 49.1451H9.58067C6.17211 49.1451 3.36231 46.5295 3.04865 43.201H34.0829L34.1466 43.0293C34.2145 42.8458 34.2806 42.6673 34.3436 42.5091L34.3425 42.5092ZM66.24 36.818C65.269 36.4058 64.3697 36.0198 63.6565 35.6391C62.9355 35.2506 62.3766 34.532 61.9828 33.4945C63.9142 31.5256 65.2904 28.5109 66.1812 24.307C67.1232 19.8792 66.575 16.3726 64.561 13.8763C61.7191 10.3746 56.9487 10.0977 55.5541 10.0977C54.1572 10.0977 49.3863 10.3745 46.5448 13.8763C44.5255 16.372 43.9797 19.8791 44.9216 24.307C45.8155 28.5107 47.1886 31.5256 49.1177 33.4945C48.7293 34.5321 48.1704 35.2507 47.4471 35.6415C46.7338 36.0222 45.84 36.4053 44.8658 36.8175C41.5903 38.2144 37.5088 39.9569 36.1332 43.3043C34.4863 47.2955 32.4533 59.6447 32.3707 60.1662C32.3172 60.459 32.4081 60.7595 32.597 60.9858C32.7859 61.2121 33.0733 61.3422 33.3685 61.3422L77.7369 61.3428C78.0321 61.3428 78.3171 61.2121 78.5084 60.9864C78.6973 60.7601 78.7852 60.462 78.7347 60.1668C78.6498 59.6453 76.6167 47.2964 74.9722 43.3049C73.5943 39.9552 69.5156 38.2149 66.24 36.818ZM34.5659 59.3177C35.1218 56.098 36.7291 47.1684 38.0013 44.0767C39.0679 41.4901 42.7241 39.9287 45.6618 38.6778L45.7349 38.6466C46.7216 38.2247 47.6522 37.8267 48.4051 37.4163C49.7539 36.6953 50.7095 35.3672 51.2494 33.4809C51.3557 33.1056 51.2417 32.7064 50.9513 32.4457C49.1208 30.8202 47.7608 27.9354 46.9043 23.8831C46.0954 20.0808 46.5052 17.1408 48.1201 15.1452C50.4559 12.2635 54.724 12.1144 55.5572 12.1144C56.3875 12.1144 60.6554 12.2634 62.989 15.1452C64.6039 17.1408 65.0167 20.0808 64.2078 23.8831C63.3484 27.9354 61.9835 30.8172 60.1577 32.4457C59.8679 32.7064 59.7479 33.1085 59.8572 33.4833C60.4024 35.3696 61.3581 36.6922 62.7046 37.4157C63.4791 37.8332 64.4341 38.243 65.4479 38.6772C68.3854 39.9303 72.0441 41.4924 73.1084 44.076C74.383 47.1649 75.9901 56.0976 76.5437 59.317L34.5659 59.3177ZM76.2784 41.1788H82.9862C83.5474 41.1788 84 41.6308 84 42.1902V42.584C84 45.9873 81.9938 48.9088 79.1149 50.295C79.0854 50.1622 79.056 50.0294 79.0266 49.8967C78.9047 49.3461 78.7834 48.7981 78.657 48.262C80.4638 47.2298 81.7437 45.3725 81.9456 43.2012H77.2334C77.2027 43.1197 77.1729 43.0378 77.1434 42.957C77.0863 42.8005 77.0307 42.6479 76.9727 42.5092C76.7785 42.0359 76.5314 41.6047 76.2784 41.1788Z" fill="#1F368B"></path>
    <mask id="mask0_5961_68189" style="mask-type:luminance" maskUnits="userSpaceOnUse" x="0" y="0" width="85" height="62">
      <path d="M85 0H0V62H85V0Z" fill="white"></path>
      <path fill-rule="evenodd" clip-rule="evenodd" d="M34.3425 42.5092C34.5397 42.0305 34.7868 41.6046 35.0398 41.1788H11.696V8.07847C11.696 5.28996 13.9654 3.0254 16.7515 3.0254H68.2432C71.0346 3.0254 73.2987 5.29239 73.2987 8.07847V37.7912C74.0382 38.3845 74.7141 39.0604 75.3211 39.8052V8.07787C75.3211 4.17456 72.1465 1 68.2432 1L16.7546 1.00059C12.8512 1.00059 9.67668 4.17515 9.67668 8.07846V41.1787H2.01086C1.45197 41.1787 1 41.6313 1 42.1872V42.581C1 47.3146 4.8504 51.1675 9.58342 51.1675H32.018L32.0913 50.8276C32.2126 50.2651 32.3337 49.7033 32.4623 49.1451H9.58067C6.17211 49.1451 3.36231 46.5295 3.04865 43.201H34.0829L34.1466 43.0293C34.2145 42.8458 34.2806 42.6673 34.3436 42.5091L34.3425 42.5092ZM66.24 36.818C65.269 36.4058 64.3697 36.0198 63.6565 35.6391C62.9355 35.2506 62.3766 34.532 61.9828 33.4945C63.9142 31.5256 65.2904 28.5109 66.1812 24.307C67.1232 19.8792 66.575 16.3726 64.561 13.8763C61.7191 10.3746 56.9487 10.0977 55.5541 10.0977C54.1572 10.0977 49.3863 10.3745 46.5448 13.8763C44.5255 16.372 43.9797 19.8791 44.9216 24.307C45.8155 28.5107 47.1886 31.5256 49.1177 33.4945C48.7293 34.5321 48.1704 35.2507 47.4471 35.6415C46.7338 36.0222 45.84 36.4053 44.8658 36.8175C41.5903 38.2144 37.5088 39.9569 36.1332 43.3043C34.4863 47.2955 32.4533 59.6447 32.3707 60.1662C32.3172 60.459 32.4081 60.7595 32.597 60.9858C32.7859 61.2121 33.0733 61.3422 33.3685 61.3422L77.7369 61.3428C78.0321 61.3428 78.3171 61.2121 78.5084 60.9864C78.6973 60.7601 78.7852 60.462 78.7347 60.1668C78.6498 59.6453 76.6167 47.2964 74.9722 43.3049C73.5943 39.9552 69.5156 38.2149 66.24 36.818ZM34.5659 59.3177C35.1218 56.098 36.7291 47.1684 38.0013 44.0767C39.0679 41.4901 42.7241 39.9287 45.6618 38.6778L45.7349 38.6466C46.7216 38.2247 47.6522 37.8267 48.4051 37.4163C49.7539 36.6953 50.7095 35.3672 51.2494 33.4809C51.3557 33.1056 51.2417 32.7064 50.9513 32.4457C49.1208 30.8202 47.7608 27.9354 46.9043 23.8831C46.0954 20.0808 46.5052 17.1408 48.1201 15.1452C50.4559 12.2635 54.724 12.1144 55.5572 12.1144C56.3875 12.1144 60.6554 12.2634 62.989 15.1452C64.6039 17.1408 65.0167 20.0808 64.2078 23.8831C63.3484 27.9354 61.9835 30.8172 60.1577 32.4457C59.8679 32.7064 59.7479 33.1085 59.8572 33.4833C60.4024 35.3696 61.3581 36.6922 62.7046 37.4157C63.4791 37.8332 64.4341 38.243 65.4479 38.6772C68.3854 39.9303 72.0441 41.4924 73.1084 44.076C74.383 47.1649 75.9901 56.0976 76.5437 59.317L34.5659 59.3177ZM76.2784 41.1788H82.9862C83.5474 41.1788 84 41.6308 84 42.1902V42.584C84 45.9873 81.9938 48.9088 79.1149 50.295C79.0854 50.1622 79.056 50.0294 79.0266 49.8967C78.9047 49.3461 78.7834 48.7981 78.657 48.262C80.4638 47.2298 81.7437 45.3725 81.9456 43.2012H77.2334C77.2027 43.1197 77.1729 43.0378 77.1434 42.957C77.0863 42.8005 77.0307 42.6479 76.9727 42.5092C76.7785 42.0359 76.5314 41.6047 76.2784 41.1788Z" fill="black"></path>
    </mask>
    <g mask="url(#mask0_5961_68189)">
      <path d="M35.0398 41.1788L35.2547 41.3065L35.4791 40.9288H35.0398V41.1788ZM34.3425 42.5092L34.1114 42.4139L33.962 42.7767L34.3538 42.7589L34.3425 42.5092ZM11.696 41.1788H11.446V41.4288H11.696V41.1788ZM73.2987 37.7912H73.0487V37.9111L73.1423 37.9862L73.2987 37.7912ZM75.3211 39.8052L75.1273 39.9631L75.5711 40.5076V39.8052H75.3211ZM9.67668 41.1787V41.4287H9.92668V41.1787H9.67668ZM32.018 51.1675V51.4175H32.2198L32.2624 51.2202L32.018 51.1675ZM32.4623 49.1451L32.7059 49.2012L32.7764 48.8951H32.4623V49.1451ZM3.04865 43.201V42.951H2.77398L2.79975 43.2245L3.04865 43.201ZM34.0829 43.201V43.451H34.2568L34.3173 43.288L34.0829 43.201ZM34.3436 42.5091L34.5759 42.6016L34.7192 42.2418L34.3323 42.2594L34.3436 42.5091ZM61.9828 33.4945L61.8043 33.3194L61.6923 33.4336L61.749 33.5832L61.9828 33.4945ZM49.1177 33.4945L49.3519 33.5821L49.4077 33.4331L49.2963 33.3195L49.1177 33.4945ZM47.4471 35.6415L47.5648 35.8621L47.5659 35.8615L47.4471 35.6415ZM32.3707 60.1662L32.6167 60.2111L32.6176 60.2053L32.3707 60.1662ZM78.5084 60.9864L78.6991 61.148L78.7003 61.1466L78.5084 60.9864ZM78.7347 60.1668L78.4879 60.207L78.4883 60.2089L78.7347 60.1668ZM34.5659 59.3177L34.3196 59.2752L34.2691 59.5677H34.5659V59.3177ZM45.7349 38.6466L45.6451 38.4131L45.6366 38.4167L45.7349 38.6466ZM45.7349 38.6466L45.8248 38.88L45.8333 38.8764L45.7349 38.6466ZM48.4051 37.4163L48.2873 37.1958L48.2855 37.1968L48.4051 37.4163ZM50.9513 32.4457L51.1183 32.2597L51.1173 32.2588L50.9513 32.4457ZM60.1577 32.4457L59.9913 32.2591L59.9905 32.2599L60.1577 32.4457ZM76.5437 59.317V59.567H76.8404L76.7901 59.2747L76.5437 59.317ZM76.2784 41.1788V40.9288H75.8391L76.0635 41.3065L76.2784 41.1788ZM79.1149 50.295L78.8709 50.3492L78.9393 50.6571L79.2234 50.5202L79.1149 50.295ZM78.657 48.262L78.533 48.0449L78.3708 48.1376L78.4137 48.3194L78.657 48.262ZM81.9456 43.2012L82.1945 43.2243L82.2199 42.9512H81.9456V43.2012ZM77.2334 43.2012L76.9995 43.2894L77.0605 43.4512H77.2334V43.2012ZM76.9727 42.5092L76.7414 42.6041L76.742 42.6057L76.9727 42.5092ZM34.8249 41.0511C34.5718 41.477 34.3162 41.9167 34.1114 42.4139L34.5737 42.6044C34.7632 42.1442 35.0018 41.7323 35.2547 41.3065L34.8249 41.0511ZM11.696 41.4288H35.0398V40.9288H11.696V41.4288ZM11.446 8.07847V41.1788H11.946V8.07847H11.446ZM16.7515 2.7754C13.8276 2.7754 11.446 5.15166 11.446 8.07847H11.946C11.946 5.42827 14.1033 3.2754 16.7515 3.2754V2.7754ZM68.2432 2.7754H16.7515V3.2754H68.2432V2.7754ZM73.5487 8.07847C73.5487 5.15434 71.1727 2.7754 68.2432 2.7754V3.2754C70.8965 3.2754 73.0487 5.43045 73.0487 8.07847H73.5487ZM73.5487 37.7912V8.07847H73.0487V37.7912H73.5487ZM75.5149 39.6472C74.8972 38.8894 74.2089 38.201 73.4552 37.5962L73.1423 37.9862C73.8674 38.568 74.5309 39.2314 75.1273 39.9631L75.5149 39.6472ZM75.0711 8.07787V39.8052H75.5711V8.07787H75.0711ZM68.2432 1.25C72.0085 1.25 75.0711 4.31263 75.0711 8.07787H75.5711C75.5711 4.03649 72.2846 0.75 68.2432 0.75V1.25ZM16.7546 1.25059L68.2432 1.25V0.75L16.7546 0.750594V1.25059ZM9.92668 8.07846C9.92668 4.31322 12.9893 1.25059 16.7546 1.25059V0.750594C12.7132 0.750594 9.42668 4.03708 9.42668 8.07846H9.92668ZM9.92668 41.1787V8.07846H9.42668V41.1787H9.92668ZM2.01086 41.4287H9.67668V40.9287H2.01086V41.4287ZM1.25 42.1872C1.25 41.7697 1.58976 41.4287 2.01086 41.4287V40.9287C1.31418 40.9287 0.75 41.493 0.75 42.1872H1.25ZM1.25 42.581V42.1872H0.75V42.581H1.25ZM9.58342 50.9175C4.98857 50.9175 1.25 47.1767 1.25 42.581H0.75C0.75 47.4526 4.71222 51.4175 9.58342 51.4175V50.9175ZM32.018 50.9175H9.58342V51.4175H32.018V50.9175ZM31.847 50.7749L31.7736 51.1147L32.2624 51.2202L32.3357 50.8803L31.847 50.7749ZM32.2186 49.089C32.0896 49.6492 31.9682 50.2127 31.847 50.7749L32.3357 50.8803C32.457 50.3175 32.5778 49.7574 32.7059 49.2012L32.2186 49.089ZM9.58067 49.3951H32.4623V48.8951H9.58067V49.3951ZM2.79975 43.2245C3.12538 46.6799 6.04164 49.3951 9.58067 49.3951V48.8951C6.30259 48.8951 3.59925 46.3791 3.29754 43.1776L2.79975 43.2245ZM34.0829 42.951H3.04865V43.451H34.0829V42.951ZM33.9122 42.9423L33.8485 43.1141L34.3173 43.288L34.381 43.1162L33.9122 42.9423ZM34.1114 42.4166C34.047 42.5782 33.9798 42.7596 33.9122 42.9423L34.381 43.1162C34.4492 42.9321 34.5143 42.7564 34.5759 42.6016L34.1114 42.4166ZM34.3538 42.7589H34.3549L34.3323 42.2594H34.3312L34.3538 42.7589ZM63.5379 35.8592C64.2627 36.2461 65.1736 36.6369 66.1424 37.0481L66.3381 36.588C65.3647 36.1748 64.4758 35.793 63.7742 35.4185L63.5379 35.8592ZM61.749 33.5832C62.1564 34.6564 62.7474 35.4333 63.5379 35.8592L63.7751 35.419C63.1236 35.068 62.5968 34.4076 62.2165 33.4058L61.749 33.5832ZM65.9367 24.2549C65.0507 28.4363 63.6886 31.3986 61.8043 33.3194L62.1612 33.6695C64.1398 31.6527 65.5302 28.5852 66.4258 24.3588L65.9367 24.2549ZM64.3664 14.0333C66.3161 16.4499 66.8697 19.8695 65.9367 24.2549L66.4258 24.3588C67.3768 19.8888 66.8338 16.2953 64.7556 13.7194L64.3664 14.0333ZM55.5541 10.3477C56.2372 10.3477 57.7527 10.4158 59.4442 10.9137C61.1358 11.4116 62.9874 12.3341 64.3664 14.0333L64.7556 13.7194C63.2928 11.9169 61.3382 10.95 59.5854 10.434C57.8326 9.91808 56.2656 9.84771 55.5541 9.84771V10.3477ZM46.739 14.0339C48.1177 12.3346 49.9698 11.4116 51.6618 10.9137C53.3536 10.4158 54.8699 10.3477 55.5541 10.3477V9.84771C54.8415 9.84771 53.2738 9.91805 51.5206 10.434C49.7674 10.9499 47.8134 11.9162 46.3507 13.7188L46.739 14.0339ZM45.1661 24.255C44.2332 19.8692 44.7843 16.4497 46.739 14.0339L46.3507 13.7188C44.2668 16.2943 43.7262 19.8891 44.6771 24.359L45.1661 24.255ZM49.2963 33.3195C47.4142 31.3987 46.0553 28.4365 45.1661 24.255L44.6771 24.359C45.5757 28.5849 46.9629 31.6526 48.9392 33.6694L49.2963 33.3195ZM47.5659 35.8615C48.3586 35.4333 48.9497 34.6564 49.3519 33.5821L48.8836 33.4068C48.5089 34.4077 47.9823 35.0682 47.3283 35.4215L47.5659 35.8615ZM44.9632 37.0477C45.9351 36.6365 46.8397 36.249 47.5648 35.8621L47.3294 35.4209C46.6278 35.7954 45.7448 36.1741 44.7684 36.5872L44.9632 37.0477ZM36.3643 43.3997C37.0245 41.793 38.3413 40.5551 39.9221 39.5398C41.5032 38.5244 43.322 37.7476 44.9632 37.0477L44.7684 36.5872C43.1341 37.2842 41.2744 38.0772 39.6519 39.1191C38.0293 40.1612 36.6173 41.4686 35.902 43.2093L36.3643 43.3997ZM32.6176 60.2053C32.6585 59.947 33.1868 56.7326 33.9105 53.085C34.6362 49.4275 35.552 45.3682 36.3643 43.3997L35.902 43.2093C35.0674 45.2319 34.1433 49.3426 33.4201 52.9877C32.6949 56.6429 32.1655 59.8638 32.1238 60.1271L32.6176 60.2053ZM32.7889 60.8256C32.6432 60.651 32.5778 60.4244 32.6167 60.2111L32.1248 60.1213C32.0568 60.4936 32.1731 60.8681 32.4051 61.146L32.7889 60.8256ZM33.3685 61.0922C33.1448 61.0922 32.9287 60.993 32.7889 60.8256L32.4051 61.146C32.6431 61.4312 33.0018 61.5922 33.3685 61.5922V61.0922ZM77.7369 61.0928L33.3685 61.0922V61.5922L77.7369 61.5928V61.0928ZM78.3177 60.8248C78.1744 60.9939 77.9593 61.0928 77.7369 61.0928V61.5928C78.1048 61.5928 78.4599 61.4303 78.6991 61.148L78.3177 60.8248ZM78.4883 60.2089C78.5257 60.428 78.461 60.653 78.3165 60.8262L78.7003 61.1466C78.9335 60.8672 79.0446 60.4959 78.9811 60.1246L78.4883 60.2089ZM74.741 43.4C75.5522 45.3687 76.4674 49.4282 77.1931 53.0858C77.9167 56.7331 78.4457 59.9476 78.4879 60.207L78.9814 60.1266C78.9387 59.8645 78.4087 56.6438 77.6835 52.9885C76.9603 49.3433 76.0367 45.2324 75.2033 43.2097L74.741 43.4ZM66.1424 37.0481C67.7836 37.748 69.6019 38.5244 71.1826 39.5395C72.763 40.5545 74.0795 41.7921 74.741 43.4L75.2033 43.2097C74.4868 41.468 73.0751 40.1607 71.4528 39.1188C69.8308 38.0771 67.9724 37.285 66.3381 36.588L66.1424 37.0481ZM37.7701 43.9813C37.1236 45.5524 36.3996 48.5813 35.7703 51.5981C35.1391 54.6236 34.5977 57.6641 34.3196 59.2752L34.8123 59.3602C35.09 57.7515 35.6303 54.7174 36.2597 51.7002C36.891 48.6744 37.6067 45.6925 38.2324 44.1718L37.7701 43.9813ZM45.5638 38.4478C44.0982 39.0719 42.4321 39.7819 40.9989 40.6634C39.5694 41.5426 38.3338 42.6145 37.7701 43.9813L38.2324 44.1718C38.7354 42.952 39.8612 41.9501 41.2609 41.0893C42.6568 40.2307 44.2876 39.5347 45.7597 38.9078L45.5638 38.4478ZM45.6366 38.4167L45.5638 38.4478L45.7597 38.9078L45.8333 38.8764L45.6366 38.4167ZM48.2855 37.1968C47.5452 37.6003 46.6265 37.9934 45.6366 38.4167L45.8333 38.8764C46.8167 38.4559 47.7593 38.0531 48.5248 37.6358L48.2855 37.1968ZM51.0091 33.4121C50.4821 35.2534 49.5602 36.5153 48.2873 37.1958L48.523 37.6368C49.9476 36.8752 50.937 35.4811 51.4898 33.5497L51.0091 33.4121ZM50.7843 32.6317C51.0032 32.8283 51.0896 33.1279 51.0091 33.4121L51.4898 33.5497C51.6219 33.0832 51.4802 32.5846 51.1183 32.2597L50.7843 32.6317ZM46.6597 23.9348C47.5202 28.0065 48.8954 30.9544 50.7853 32.6326L51.1173 32.2588C49.3462 30.686 48.0013 27.8644 47.1489 23.8314L46.6597 23.9348ZM47.9258 14.9878C46.2433 17.067 45.8432 20.0973 46.6597 23.9348L47.1489 23.8314C46.3475 20.0642 46.7672 17.2145 48.3144 15.3025L47.9258 14.9878ZM55.5572 11.8644C55.1283 11.8644 53.8288 11.9025 52.3366 12.3079C50.8462 12.7128 49.1393 13.4907 47.9258 14.9878L48.3144 15.3025C49.4367 13.9179 51.0318 13.1805 52.4677 12.7904C53.9017 12.4008 55.153 12.3644 55.5572 12.3644V11.8644ZM63.1834 14.988C61.9711 13.4908 60.2647 12.7128 58.775 12.3079C57.2834 11.9025 55.9847 11.8644 55.5572 11.8644V12.3644C55.96 12.3644 57.2105 12.4008 58.6438 12.7904C60.079 13.1804 61.6735 13.9179 62.7948 15.3026L63.1834 14.988ZM64.4523 23.9351C65.2688 20.0974 64.8658 17.067 63.1834 14.988L62.7948 15.3026C64.3421 17.2147 64.7647 20.0642 63.9632 23.8311L64.4523 23.9351ZM60.3242 32.6323C62.2087 30.9512 63.5888 28.0071 64.4523 23.9351L63.9632 23.8311C63.108 27.8637 61.7583 30.6831 59.9913 32.2591L60.3242 32.6323ZM60.0974 33.4139C60.0158 33.134 60.1038 32.8306 60.3242 32.6323L59.9905 32.2599C59.6314 32.583 59.4803 33.0837 59.6172 33.5533L60.0974 33.4139ZM62.8232 37.1956C61.5518 36.5125 60.6296 35.2552 60.0974 33.4139L59.6172 33.5533C60.1755 35.4846 61.1646 36.8721 62.5862 37.6359L62.8232 37.1956ZM65.5463 38.4473C64.5295 38.0119 63.5858 37.6067 62.8232 37.1956L62.5862 37.6359C63.3726 38.0599 64.3386 38.4741 65.3495 38.907L65.5463 38.4473ZM73.3396 43.9808C72.7771 42.6153 71.5413 41.544 70.1116 40.6647C68.6781 39.7832 67.0117 39.0725 65.5463 38.4473L65.3495 38.907C66.8216 39.535 68.4533 40.2319 69.8497 41.0906C71.2497 41.9516 72.3755 42.9531 72.8773 44.1712L73.3396 43.9808ZM76.7901 59.2747C76.5131 57.6637 75.9723 54.6224 75.3412 51.5965C74.7118 48.5793 73.9873 45.5506 73.3396 43.9808L72.8773 44.1712C73.5042 45.6904 74.2205 48.6724 74.8517 51.6986C75.4811 54.7162 76.0208 57.7509 76.2973 59.3594L76.7901 59.2747ZM34.5659 59.5677L76.5437 59.567V59.067L34.5659 59.0677V59.5677ZM82.9862 40.9288H76.2784V41.4288H82.9862V40.9288ZM84.25 42.1902C84.25 41.4922 83.685 40.9288 82.9862 40.9288V41.4288C83.4098 41.4288 83.75 41.7693 83.75 42.1902H84.25ZM84.25 42.584V42.1902H83.75V42.584H84.25ZM79.2234 50.5202C82.1837 49.0948 84.25 46.0888 84.25 42.584H83.75C83.75 45.8857 81.8038 48.7228 79.0065 50.0698L79.2234 50.5202ZM78.7826 49.9508C78.8119 50.0834 78.8413 50.2163 78.8709 50.3492L79.359 50.2408C79.3295 50.1081 79.3001 49.9753 79.2707 49.8427L78.7826 49.9508ZM78.4137 48.3194C78.5396 48.8535 78.6606 49.3998 78.7826 49.9508L79.2707 49.8427C79.1489 49.2923 79.0272 48.7426 78.9004 48.2046L78.4137 48.3194ZM81.6967 43.178C81.5027 45.264 80.2728 47.051 78.533 48.0449L78.781 48.4791C80.6548 47.4086 81.9847 45.481 82.1945 43.2243L81.6967 43.178ZM77.2334 43.4512H81.9456V42.9512H77.2334V43.4512ZM76.9085 43.0427C76.9379 43.1233 76.9682 43.2064 76.9995 43.2894L77.4673 43.113C77.4372 43.033 77.4078 42.9524 77.3783 42.8714L76.9085 43.0427ZM76.742 42.6057C76.7974 42.738 76.851 42.8849 76.9085 43.0427L77.3783 42.8714C77.3216 42.7161 77.264 42.5578 77.2033 42.4128L76.742 42.6057ZM76.0635 41.3065C76.3159 41.7315 76.5547 42.1491 76.7414 42.6041L77.204 42.4144C77.0022 41.9226 76.7469 41.4779 76.4933 41.0511L76.0635 41.3065Z" fill="#1F368B"></path>
    </g>
    <path d="M30.1888 23.98C30.7768 23.73 31.3143 23.4983 31.7401 23.2667C32.28 22.9793 32.7058 22.5297 33.0384 21.9577C33.6716 22.2398 34.5553 22.5457 35.473 22.5457C36.3912 22.5457 37.2744 22.2422 37.9075 21.9577C38.2401 22.5297 38.666 22.9793 39.2059 23.2667C39.6317 23.4983 40.1692 23.73 40.7543 23.98C41.3316 24.2277 41.9624 24.4938 42.5527 24.802C42.3822 23.9693 42.2736 23.1765 42.1934 22.402C41.9754 22.3064 41.7598 22.2131 41.5495 22.1252C41.0281 21.9019 40.5464 21.697 40.1633 21.4921C39.921 21.359 39.7191 21.1304 39.554 20.8002C40.5731 19.6509 41.3049 17.9796 41.7835 15.7287C42.3341 13.1421 42.0015 11.0747 40.7964 9.58741C39.1014 7.49618 36.2945 7.33105 35.4724 7.33105C34.6503 7.33105 31.8429 7.49616 30.1455 9.58741C28.9428 11.0746 28.6101 13.1421 29.1584 15.7287C29.6401 17.9826 30.3718 19.6533 31.391 20.8002C31.2259 21.1304 31.021 21.359 30.7817 21.4921C30.3986 21.697 29.9193 21.9019 29.3954 22.1252C27.5092 22.9288 25.1619 23.932 24.3322 25.9513C23.4033 28.2023 22.2724 35.0722 22.225 35.3626C22.1745 35.6524 22.2624 35.9535 22.4536 36.1792C22.6425 36.4055 22.927 36.5386 23.2228 36.5386H39.763C40.8089 36.0225 41.8436 35.5728 42.783 35.1708C43.3419 34.9314 43.8343 34.7182 44.2839 34.5133L24.42 34.5139C24.8405 32.1298 25.615 28.1386 26.2 26.7203C26.7161 25.4618 28.6428 24.6398 30.1888 23.98ZM31.1361 15.3057C30.7209 13.3446 30.9181 11.8491 31.7187 10.8596C32.8817 9.4282 35.0501 9.35338 35.4729 9.35338C35.8957 9.35338 38.0671 9.42762 39.2271 10.8596C40.0277 11.8496 40.2249 13.3446 39.8073 15.3057C39.3524 17.4421 38.6498 18.9458 37.7214 19.7839C37.3835 19.9941 36.3459 20.5263 35.4728 20.5263C34.5974 20.5263 33.5622 19.9918 33.2242 19.7785C32.2959 18.9429 31.591 17.4374 31.1361 15.3057Z" fill="#FF7B14"></path>
  </g>
  <defs>
    <clipPath id="clip0_5961_68189">
      <rect width="85" height="62" fill="white"></rect>
    </clipPath>
  </defs>
</svg>
