<svg width="69" height="60" viewBox="0 0 69 60" fill="none" xmlns="http://www.w3.org/2000/svg">
<path opacity="0.198448" d="M41 56C56.464 56 69 43.464 69 28C69 12.536 56.464 0 41 0C25.536 0 13 12.536 13 28C13 43.464 25.536 56 41 56Z" fill="#00DBFF"/>
<path d="M26.6509 35.25C29.2742 35.25 31.4009 33.1234 31.4009 30.5C31.4009 27.8766 29.2742 25.75 26.6509 25.75C24.0275 25.75 21.9009 27.8766 21.9009 30.5C21.9009 33.1234 24.0275 35.25 26.6509 35.25Z" stroke="#FF7B14" stroke-width="1.75" stroke-miterlimit="10" stroke-linecap="round" stroke-linejoin="round"/>
<path d="M26.6509 11.5C29.2742 11.5 31.4009 9.37335 31.4009 6.75C31.4009 4.12665 29.2742 2 26.6509 2C24.0275 2 21.9009 4.12665 21.9009 6.75C21.9009 9.37335 24.0275 11.5 26.6509 11.5Z" stroke="#337AB7" stroke-width="1.75" stroke-miterlimit="10" stroke-linecap="round" stroke-linejoin="round"/>
<path d="M5.75 22.9C8.37335 22.9 10.5 20.7734 10.5 18.15C10.5 15.5267 8.37335 13.4 5.75 13.4C3.12665 13.4 1 15.5267 1 18.15C1 20.7734 3.12665 22.9 5.75 22.9Z" stroke="#337AB7" stroke-width="1.75" stroke-miterlimit="10" stroke-linecap="round" stroke-linejoin="round"/>
<path d="M47.55 22.9C50.1734 22.9 52.3 20.7734 52.3 18.15C52.3 15.5267 50.1734 13.4 47.55 13.4C44.9267 13.4 42.8 15.5267 42.8 18.15C42.8 20.7734 44.9267 22.9 47.55 22.9Z" stroke="#337AB7" stroke-width="1.75" stroke-miterlimit="10" stroke-linecap="round" stroke-linejoin="round"/>
<path d="M5.75 47.6C8.37335 47.6 10.5 45.4733 10.5 42.85C10.5 40.2266 8.37335 38.1 5.75 38.1C3.12665 38.1 1 40.2266 1 42.85C1 45.4733 3.12665 47.6 5.75 47.6Z" stroke="#337AB7" stroke-width="1.75" stroke-miterlimit="10" stroke-linecap="round" stroke-linejoin="round"/>
<path d="M47.55 47.6C50.1734 47.6 52.3 45.4733 52.3 42.85C52.3 40.2266 50.1734 38.1 47.55 38.1C44.9267 38.1 42.8 40.2266 42.8 42.85C42.8 45.4733 44.9267 47.6 47.55 47.6Z" stroke="#337AB7" stroke-width="1.75" stroke-miterlimit="10" stroke-linecap="round" stroke-linejoin="round"/>
<path d="M26.6492 59C29.2725 59 31.3992 56.8734 31.3992 54.25C31.3992 51.6266 29.2725 49.5 26.6492 49.5C24.0258 49.5 21.8992 51.6266 21.8992 54.25C21.8992 56.8734 24.0258 59 26.6492 59Z" stroke="#337AB7" stroke-width="1.75" stroke-miterlimit="10" stroke-linecap="round" stroke-linejoin="round"/>
<path d="M26.6499 11.5V21" stroke="#337AB7" stroke-width="1.75" stroke-miterlimit="10" stroke-linecap="round" stroke-linejoin="round"/>
<path d="M26.6499 40V49.5" stroke="#337AB7" stroke-width="1.75" stroke-miterlimit="10" stroke-linecap="round" stroke-linejoin="round"/>
<path d="M14.0872 13.6024L22.4833 9.02338" stroke="#337AB7" stroke-width="1.75" stroke-miterlimit="10" stroke-linecap="round" stroke-linejoin="round"/>
<path d="M18.3118 49.7023L9.92041 45.1252" stroke="#337AB7" stroke-width="1.75" stroke-miterlimit="10" stroke-linecap="round" stroke-linejoin="round"/>
<path d="M5.75 33.35V22.9" stroke="#337AB7" stroke-width="1.75" stroke-miterlimit="10" stroke-linecap="round" stroke-linejoin="round"/>
<path d="M47.55 27.65V38.1" stroke="#337AB7" stroke-width="1.75" stroke-miterlimit="10" stroke-linecap="round" stroke-linejoin="round"/>
<path d="M43.3796 15.8747L34.9883 11.2986" stroke="#337AB7" stroke-width="1.75" stroke-miterlimit="10" stroke-linecap="round" stroke-linejoin="round"/>
<path d="M18.4829 25.674L9.83691 20.5649" stroke="#337AB7" stroke-width="1.75" stroke-miterlimit="10" stroke-linecap="round" stroke-linejoin="round"/>
<path d="M18.4829 35.326L9.83691 40.4351" stroke="#337AB7" stroke-width="1.75" stroke-miterlimit="10" stroke-linecap="round" stroke-linejoin="round"/>
<path d="M34.8191 25.673L43.4631 20.5649" stroke="#337AB7" stroke-width="1.75" stroke-miterlimit="10" stroke-linecap="round" stroke-linejoin="round"/>
<path d="M43.4631 40.4351L34.8191 35.327" stroke="#337AB7" stroke-width="1.75" stroke-miterlimit="10" stroke-linecap="round" stroke-linejoin="round"/>
<path d="M39.2128 47.3976L30.8196 51.9747" stroke="#337AB7" stroke-width="1.75" stroke-miterlimit="10" stroke-linecap="round" stroke-linejoin="round"/>
</svg>
